<svg viewBox="0 0 66 68" fill="none" xmlns="http://www.w3.org/2000/svg">
<defs>
<linearGradient id="iconNavy" gradientUnits="userSpaceOnUse" x1="33" y1="0" x2="33" y2="68">
<stop offset="0" stop-color="#244a72"/>
<stop offset="0.5" stop-color="#112b49"/>
<stop offset="1" stop-color="#06162a"/>
</linearGradient>
<linearGradient id="iconBlue" gradientUnits="userSpaceOnUse" x1="33" y1="0" x2="33" y2="56">
<stop offset="0" stop-color="#a9e5f6"/>
<stop offset="0.5" stop-color="#5fc8e6"/>
<stop offset="1" stop-color="#34a0c4"/>
</linearGradient>
</defs>
<path d="M34 0C48.0108 0 60.0379 8.47609 65.2432 20.5791L65.1943 20.5977C65.3727 21.0778 65.4707 21.5974 65.4707 22.1396C65.4707 24.5851 63.4875 26.5674 61.042 26.5674C58.8801 26.5672 57.0806 25.0177 56.6924 22.9688C52.6254 14.4365 43.9234 8.53906 33.8418 8.53906C19.8678 8.53928 8.54016 19.8678 8.54004 33.8418C8.54004 47.8159 19.8678 59.1443 33.8418 59.1445C44.0944 59.1445 52.9223 53.0462 56.8975 44.2793H56.9062C57.5429 42.6152 59.154 41.4328 61.042 41.4326C63.4873 41.4326 65.4704 43.4151 65.4707 45.8604C65.4707 46.5162 65.3261 47.1383 65.0703 47.6982L65.1162 47.7197C59.8422 59.6639 47.8956 68.001 34 68.001C15.2223 68.0008 0 52.7778 0 34C0.000199057 15.2224 15.2224 0.000177308 34 0Z" fill="url(#iconNavy)"/>
<path d="M34 0C48.0108 0 60.0379 8.47609 65.2432 20.5791L65.1943 20.5977C65.3727 21.0778 65.4707 21.5974 65.4707 22.1396C65.4707 24.5851 63.4875 26.5674 61.042 26.5674C58.8801 26.5672 57.0806 25.0177 56.6924 22.9688C52.6254 14.4365 43.9234 8.53906 33.8418 8.53906C19.8678 8.53928 8.54016 19.8678 8.54004 33.8418C8.54004 41.9402 12.3445 49.1499 18.2637 53.7812H6.34473C2.35151 48.2082 0 41.3789 0 34C0.000199057 15.2224 15.2224 0.000177308 34 0ZM61.042 41.4326C63.4873 41.4326 65.4704 43.4151 65.4707 45.8604C65.4707 46.5162 65.3261 47.1383 65.0703 47.6982L65.1162 47.7197C64.1684 49.8662 63.0037 51.8952 61.6523 53.7812H49.4189C52.6183 51.2781 55.2003 48.0222 56.8975 44.2793H56.9062C57.5429 42.6152 59.154 41.4328 61.042 41.4326Z" fill="url(#iconBlue)"/>
</svg>
