<svg width="285" height="68" viewBox="0 0 285 68" fill="none" xmlns="http://www.w3.org/2000/svg">
<path d="M34 0C48.0108 0 60.0379 8.47609 65.2432 20.5791L65.1943 20.5977C65.3727 21.0778 65.4707 21.5974 65.4707 22.1396C65.4707 24.5851 63.4875 26.5674 61.042 26.5674C58.8801 26.5672 57.0806 25.0177 56.6924 22.9688C52.6254 14.4365 43.9234 8.53906 33.8418 8.53906C19.8678 8.53928 8.54016 19.8678 8.54004 33.8418C8.54004 47.8159 19.8678 59.1443 33.8418 59.1445C44.0944 59.1445 52.9223 53.0462 56.8975 44.2793H56.9062C57.5429 42.6152 59.154 41.4328 61.042 41.4326C63.4873 41.4326 65.4704 43.4151 65.4707 45.8604C65.4707 46.5162 65.3261 47.1383 65.0703 47.6982L65.1162 47.7197C59.8422 59.6639 47.8956 68.001 34 68.001C15.2223 68.0008 0 52.7778 0 34C0.000199057 15.2224 15.2224 0.000177308 34 0ZM229.62 20.5586C242.721 20.5586 253.342 31.1786 253.342 44.2793V44.2803C253.342 46.3761 251.643 48.0759 249.547 48.0762H213.939C215.647 55.1523 222.02 60.4097 229.62 60.4102C234.199 60.4101 238.332 58.4992 241.268 55.4346C241.964 54.6094 243.006 54.085 244.17 54.085C246.266 54.0851 247.965 55.7841 247.965 57.8799C247.965 58.8003 247.637 59.6447 247.092 60.3018L247.101 60.3086C242.765 65.0351 236.54 68.001 229.62 68.001C216.52 68.0002 205.9 57.3795 205.899 44.2793C205.9 31.1791 216.52 20.5593 229.62 20.5586ZM268.84 8.53906C270.936 8.53929 272.636 10.2391 272.636 12.335V20.5586L280.227 20.5576C282.322 20.558 284.021 22.2578 284.021 24.3535C284.021 26.4494 282.322 28.1481 280.227 28.1484H272.636V54.4004H272.644C272.805 57.7467 275.501 60.4101 278.804 60.4102C278.856 60.4101 278.909 60.4066 278.961 60.4053V60.4092C281.057 60.4094 282.757 62.1092 282.757 64.2051C282.757 66.301 281.057 67.9998 278.961 68C278.901 68 278.841 67.9979 278.781 67.9951C278.684 67.9974 278.585 68.001 278.487 68.001C271.125 68.001 265.146 62.9168 265.047 56.6143H265.045V28.1484H261.249C259.153 28.1482 257.454 26.4494 257.454 24.3535C257.454 22.2577 259.153 20.5578 261.249 20.5576L265.045 20.5586V12.335C265.045 10.2391 266.744 8.53924 268.84 8.53906ZM97.0986 19.9258C110.199 19.926 120.82 30.546 120.82 43.6465C120.82 56.7472 110.199 67.3679 97.0986 67.3682C83.998 67.3679 73.3779 56.7472 73.3779 43.6465C73.3782 30.546 83.9982 19.926 97.0986 19.9258ZM178.699 19.9258C189.296 19.9259 197.929 29.4843 198.295 41.4326H198.309V63.4141C198.309 65.5973 196.539 67.3679 194.355 67.3682C192.172 67.368 190.401 65.5974 190.401 63.4141V41.4326H190.397C190.246 34.4171 185.067 28.7813 178.699 28.7812C172.332 28.7815 167.152 34.4172 167 41.4326H166.997V60.1152H166.996V63.5723C166.996 65.6684 165.297 67.3682 163.201 67.3682C161.105 67.3679 159.406 65.6682 159.406 63.5723V41.4326C159.406 34.271 154.166 28.4658 147.703 28.4658C141.341 28.4662 136.165 34.0917 136.005 41.0986L136.001 41.4326V63.5723C136.001 65.6684 134.301 67.3682 132.205 67.3682C130.109 67.3677 128.41 65.6681 128.41 63.5723V41.4326H128.424C128.79 29.4844 137.423 19.9261 148.02 19.9258C154.23 19.9258 159.765 23.2099 163.358 28.333C166.951 23.2094 172.488 19.9259 178.699 19.9258ZM97.0986 27.5166C88.1902 27.5168 80.9688 34.739 80.9688 43.6475C80.969 52.5557 88.1904 59.7771 97.0986 59.7773C106.007 59.7771 113.229 52.5557 113.229 43.6475C113.229 34.7391 106.007 27.5169 97.0986 27.5166ZM229.62 28.1494C222.019 28.1499 215.646 33.4082 213.939 40.4854H245.3C243.593 33.408 237.221 28.1495 229.62 28.1494Z" fill="#0F2947"/>
<path d="M34 0C48.0108 0 60.0379 8.47609 65.2432 20.5791L65.1943 20.5977C65.3727 21.0778 65.4707 21.5974 65.4707 22.1396C65.4707 24.5851 63.4875 26.5674 61.042 26.5674C58.8801 26.5672 57.0806 25.0177 56.6924 22.9688C52.6254 14.4365 43.9234 8.53906 33.8418 8.53906C19.8678 8.53928 8.54016 19.8678 8.54004 33.8418C8.54004 41.9402 12.3445 49.1499 18.2637 53.7812H6.34473C2.35151 48.2082 0 41.3789 0 34C0.000199057 15.2224 15.2224 0.000177308 34 0ZM61.042 41.4326C63.4873 41.4326 65.4704 43.4151 65.4707 45.8604C65.4707 46.5162 65.3261 47.1383 65.0703 47.6982L65.1162 47.7197C64.1684 49.8662 63.0037 51.8952 61.6523 53.7812H49.4189C52.6183 51.2781 55.2003 48.0222 56.8975 44.2793H56.9062C57.5429 42.6152 59.154 41.4328 61.042 41.4326ZM97.0986 19.9258C110.199 19.926 120.82 30.546 120.82 43.6465C120.82 47.2724 120.005 50.7078 118.551 53.7812H109.647C111.887 51.0117 113.229 47.4866 113.229 43.6475C113.229 34.7391 106.007 27.5169 97.0986 27.5166C88.1902 27.5168 80.9688 34.739 80.9688 43.6475C80.9688 47.4866 82.3112 51.0117 84.5508 53.7812H75.6475C74.1929 50.7078 73.3779 47.2725 73.3779 43.6465C73.3782 30.546 83.9982 19.926 97.0986 19.9258ZM178.699 19.9258C189.296 19.9259 197.929 29.4843 198.295 41.4326H198.309V53.7812H190.401V41.4326H190.397C190.246 34.4171 185.067 28.7813 178.699 28.7812C172.332 28.7815 167.152 34.4172 167 41.4326H166.997V53.7812H159.406V41.4326C159.406 34.271 154.166 28.4658 147.703 28.4658C141.341 28.4662 136.165 34.0917 136.005 41.0986L136.001 41.4326V53.7812H128.41V41.4326H128.424C128.79 29.4844 137.423 19.9261 148.02 19.9258C154.23 19.9258 159.765 23.2099 163.358 28.333C166.951 23.2094 172.488 19.9259 178.699 19.9258ZM229.62 20.5586C242.721 20.5586 253.342 31.1786 253.342 44.2793V44.2803C253.342 46.3761 251.643 48.0759 249.547 48.0762H213.939C214.444 50.1669 215.359 52.0968 216.589 53.7812H207.881C206.607 50.8718 205.899 47.6583 205.899 44.2793C205.9 31.1791 216.52 20.5593 229.62 20.5586ZM268.84 8.53906C270.936 8.53929 272.636 10.2391 272.636 12.335V20.5586L280.227 20.5576C282.322 20.558 284.021 22.2578 284.021 24.3535C284.021 26.4494 282.322 28.1481 280.227 28.1484H272.636V53.7812H265.045V28.1484H261.249C259.153 28.1482 257.454 26.4494 257.454 24.3535C257.454 22.2577 259.153 20.5578 261.249 20.5576L265.045 20.5586V12.335C265.045 10.2391 266.744 8.53924 268.84 8.53906ZM229.62 28.1494C222.019 28.1499 215.646 33.4082 213.939 40.4854H245.3C243.593 33.408 237.221 28.1495 229.62 28.1494Z" fill="#57C5E4"/>
</svg>
